# xmcd
#
# Track frame offsets:
#	150
#	17448
#	40628
#	60983
#	80648
#	101758
#	119738
#	141580
#	157085
#
# Disc length: 2316 seconds
#
# Revision: 6
# Processed by: cddbd v1.5.2PL0 Copyright (c) Steve Scherf et al.
# Submitted via: MusicWizard 7.2.0
#
DISCID=77090a09
DTITLE=Glen, Marla - 1993 - This is Marla Glen
DYEAR=1993
DGENRE=Blues
TTITLE0=The Cost Of Freedom
TTITLE1=Believer
TTITLE2=Destiny (To Get Up Again)
TTITLE3=Enough
TTITLE4=Personal
TTITLE5=Control
TTITLE6=Travel
TTITLE7=Feet On The Ground
TTITLE8=You Hurt Me
EXTD=ID3G:   0
EXTT0=
EXTT1=
EXTT2=
EXTT3=
EXTT4=
EXTT5=
EXTT6=
EXTT7=
EXTT8=
PLAYORDER=
